<svg width="36" height="36" viewBox="0 0 36 36" fill="none" xmlns="http://www.w3.org/2000/svg">
<path d="M27.8646 24.9161H26.8601V16.4728C26.8601 12.0344 23.4745 8.37173 19.1515 7.929V6.87986C19.1515 6.39436 18.7571 6 18.2716 6C17.7861 6 17.3918 6.39436 17.3918 6.87986V7.929C13.0668 8.36987 9.68319 12.0344 9.68319 16.4728V24.9161H8.67869C8.19319 24.9161 7.79883 25.3105 7.79883 25.796C7.79883 26.2815 8.19319 26.6759 8.67869 26.6759H10.5631H14.1606C14.5662 28.5732 16.2552 30 18.2698 30C20.2862 30 21.9752 28.5732 22.3808 26.6759H25.9802H27.8646C28.3501 26.6759 28.7444 26.2815 28.7444 25.796C28.7444 25.3086 28.3501 24.9161 27.8646 24.9161ZM18.2716 28.2384C17.2336 28.2384 16.3463 27.5874 15.9929 26.674H20.5522C20.1969 27.5892 19.3096 28.2384 18.2716 28.2384ZM25.1003 24.9161H11.4411V16.4728C11.4411 12.7078 14.5048 9.64409 18.2698 9.64409C22.0348 9.64409 25.1003 12.7059 25.1003 16.4728V24.9161Z" fill="white"/>
</svg>
