<svg width="36" height="36" viewBox="0 0 36 36" fill="none" xmlns="http://www.w3.org/2000/svg">
<path fill-rule="evenodd" clip-rule="evenodd" d="M21.9725 21.8649C24.9949 18.8184 24.9949 13.8789 21.9725 10.8324C18.9501 7.7858 14.0499 7.7858 11.0275 10.8324C8.00513 13.8789 8.00513 18.8184 11.0275 21.8649C14.0499 24.9115 18.9501 24.9115 21.9725 21.8649ZM23.25 23.1526C26.9779 19.3949 26.9779 13.3024 23.25 9.54463C19.5221 5.78689 13.4779 5.78689 9.75 9.54463C6.02208 13.3024 6.02208 19.3949 9.75 23.1526C13.4779 26.9104 19.5221 26.9104 23.25 23.1526Z" fill="white"/>
<path d="M21.5371 24.1138L22.834 22.8065L29.4877 29.5133L28.1907 30.8206L21.5371 24.1138Z" fill="white"/>
<path d="M29.6985 30.1066C29.6985 30.6145 29.2868 31.0262 28.779 31.0262C28.2711 31.0262 27.8594 30.6145 27.8594 30.1066C27.8594 29.5987 28.2711 29.187 28.779 29.187C29.2868 29.187 29.6985 29.5987 29.6985 30.1066Z" fill="white"/>
</svg>
