<svg width="24" height="24" viewBox="0 0 24 24" fill="none" xmlns="http://www.w3.org/2000/svg">
<path d="M11.8581 19.7629H20.7515M2.96484 19.7629H4.61954C5.10292 19.7629 5.34461 19.7629 5.57206 19.7082C5.77371 19.6598 5.96649 19.58 6.14331 19.4716C6.34275 19.3494 6.51365 19.1785 6.85546 18.8367L19.2693 6.42288C20.0879 5.60427 20.0879 4.27704 19.2693 3.45844C18.4507 2.63983 17.1234 2.63983 16.3048 3.45844L3.89099 15.8723C3.54919 16.2141 3.37829 16.385 3.25607 16.5844C3.14771 16.7612 3.06786 16.954 3.01945 17.1557C2.96484 17.3831 2.96484 17.6248 2.96484 18.1082V19.7629Z" stroke="white" stroke-width="2" stroke-linecap="round" stroke-linejoin="round"/>
</svg>
