<svg width="30" height="30" viewBox="0 0 30 30" fill="none" xmlns="http://www.w3.org/2000/svg">
<path d="M14.9993 18.75C11.0367 18.75 7.51282 20.6633 5.26932 23.6325C4.78646 24.2715 4.54502 24.591 4.55292 25.0229C4.55902 25.3565 4.76853 25.7774 5.03103 25.9834C5.37081 26.25 5.84166 26.25 6.78336 26.25H23.2153C24.157 26.25 24.6278 26.25 24.9676 25.9834C25.2301 25.7774 25.4396 25.3565 25.4457 25.0229C25.4536 24.591 25.2122 24.2715 24.7293 23.6325C22.4858 20.6633 18.9619 18.75 14.9993 18.75Z" stroke="#4B0091" stroke-width="2" stroke-linecap="round" stroke-linejoin="round"/>
<path d="M14.9993 15C18.1059 15 20.6243 12.4816 20.6243 9.375C20.6243 6.2684 18.1059 3.75 14.9993 3.75C11.8927 3.75 9.37433 6.2684 9.37433 9.375C9.37433 12.4816 11.8927 15 14.9993 15Z" stroke="#4B0091" stroke-width="2" stroke-linecap="round" stroke-linejoin="round"/>
</svg>
