<svg width="30" height="30" viewBox="0 0 30 30" fill="none" xmlns="http://www.w3.org/2000/svg">
<path d="M10.1575 17.4999C10.7126 19.6565 12.6702 21.2499 15 21.2499C17.3298 21.2499 19.2874 19.6565 19.8425 17.4999M13.7721 3.45494L5.29424 10.0488C4.72753 10.4896 4.44417 10.71 4.24003 10.986C4.05921 11.2305 3.9245 11.5059 3.84253 11.7988C3.75 12.1293 3.75 12.4883 3.75 13.2063V22.2499C3.75 23.6501 3.75 24.3501 4.02248 24.8849C4.26217 25.3553 4.64462 25.7378 5.11502 25.9774C5.6498 26.2499 6.34987 26.2499 7.75 26.2499H22.25C23.6501 26.2499 24.3502 26.2499 24.885 25.9774C25.3554 25.7378 25.7378 25.3553 25.9775 24.8849C26.25 24.3501 26.25 23.6501 26.25 22.2499V13.2063C26.25 12.4883 26.25 12.1293 26.1575 11.7988C26.0755 11.5059 25.9408 11.2305 25.76 10.986C25.5558 10.71 25.2725 10.4896 24.7058 10.0488L16.2279 3.45494C15.7887 3.11337 15.5691 2.94259 15.3267 2.87694C15.1127 2.81901 14.8873 2.81901 14.6733 2.87694C14.4309 2.94259 14.2113 3.11337 13.7721 3.45494Z" stroke="#A4A8B1" stroke-width="2" stroke-linecap="round" stroke-linejoin="round"/>
</svg>
