<svg width="77" height="22" viewBox="0 0 77 22" fill="none" xmlns="http://www.w3.org/2000/svg">
<path fill-rule="evenodd" clip-rule="evenodd" d="M8.99988 18.1771C12.8859 18.1771 16.0361 15.0017 16.0361 11.0846C16.0361 7.16746 12.8859 3.99201 8.99988 3.99201C5.11386 3.99201 1.96361 7.16746 1.96361 11.0846C1.96361 15.0017 5.11386 18.1771 8.99988 18.1771ZM8.99988 20.1565C13.9704 20.1565 17.9998 16.0948 17.9998 11.0846C17.9998 6.07431 13.9704 2.0127 8.99988 2.0127C4.02938 2.0127 0 6.07431 0 11.0846C0 16.0948 4.02938 20.1565 8.99988 20.1565Z" fill="white"/>
<ellipse cx="8.99895" cy="11.0845" rx="2.76067" ry="2.78276" fill="white"/>
<rect width="1.96361" height="1.97932" fill="white"/>
<rect x="16.0352" y="0.0673828" width="1.96361" height="1.97932" fill="white"/>
<rect y="19.1006" width="1.96361" height="1.97932" fill="white"/>
<rect x="16.0352" y="19.1665" width="1.96361" height="1.97932" fill="white"/>
<path d="M21.62 17.0732V3.83324H23.36L28.1 10.1132L32.76 3.83324H34.5V17.0732H33V6.11324L28.1 12.4132L23.12 6.11324V17.0732H21.62ZM37.7333 17.0732V3.83324H39.4733L47.6533 14.9732V3.83324H49.1533V17.0732H47.4133L39.2333 5.89324V17.0732H37.7333ZM56.4013 17.0732V11.8332L50.8413 3.83324H52.6613L57.1413 10.2732L61.6213 3.83324H63.4413L57.9013 11.8332V17.0732H56.4013ZM63.4361 17.0732L68.7161 10.2332L63.7961 3.83324H65.6961L69.6161 9.03324L73.5561 3.83324H75.4561L70.5361 10.2332L75.8161 17.0732H73.9161L69.6161 11.3932L65.3361 17.0732H63.4361Z" fill="white"/>
</svg>
