<svg width="28" height="29" viewBox="0 0 28 29" fill="none" xmlns="http://www.w3.org/2000/svg">
<path d="M22.9833 21.4696H22.1044V14.0817C22.1044 10.1981 19.142 6.99323 15.3594 6.60585V5.68785C15.3594 5.26303 15.0143 4.91797 14.5895 4.91797C14.1647 4.91797 13.8196 5.26303 13.8196 5.68785V6.60585C10.0353 6.9916 7.0746 10.1981 7.0746 14.0817V21.4696H6.19566C5.77084 21.4696 5.42578 21.8147 5.42578 22.2395C5.42578 22.6643 5.77084 23.0093 6.19566 23.0093H7.84448H10.9924C11.3472 24.6696 12.8251 25.918 14.5878 25.918C16.3522 25.918 17.8301 24.6696 18.185 23.0093H21.3345H22.9833C23.4081 23.0093 23.7532 22.6643 23.7532 22.2395C23.7532 21.813 23.4081 21.4696 22.9833 21.4696ZM14.5895 24.3766C13.6812 24.3766 12.9049 23.8069 12.5956 23.0077H16.585C16.2741 23.8085 15.4977 24.3766 14.5895 24.3766ZM20.5646 21.4696H8.61273V14.0817C8.61273 10.7873 11.2935 8.10654 14.5878 8.10654C17.8822 8.10654 20.5646 10.7857 20.5646 14.0817V21.4696Z" fill="white"/>
<circle cx="25.8496" cy="2.91797" r="2" fill="white"/>
</svg>
