<svg width="36" height="36" viewBox="0 0 36 36" fill="none" xmlns="http://www.w3.org/2000/svg">
<path d="M22.2119 15.35V12.2C22.2119 9.8804 20.2788 8 17.8941 8C15.5094 8 13.5762 9.8804 13.5762 12.2V15.35M8.81443 16.7696L8.16676 23.4896C7.9826 25.4002 7.89053 26.3556 8.21646 27.0935C8.50279 27.7417 9.00454 28.2777 9.64132 28.6155C10.3662 29 11.3526 29 13.3256 29H22.4555C24.4285 29 25.4149 29 26.1398 28.6155C26.7766 28.2777 27.2783 27.7417 27.5646 27.0935C27.8906 26.3556 27.7985 25.4002 27.6143 23.4896L26.9667 16.7696C26.8112 15.1561 26.7334 14.3494 26.3604 13.7395C26.0318 13.2023 25.5465 12.7724 24.966 12.5043C24.3069 12.2 23.4739 12.2 21.8079 12.2L17.8905 12.2L13.9732 12.2C12.3072 12.2 11.4742 12.2 10.8151 12.5043C10.2346 12.7724 9.74925 13.2023 9.42072 13.7395C9.04769 14.3494 8.96994 15.1561 8.81443 16.7696Z" stroke="white" stroke-width="1.6" stroke-linecap="round" stroke-linejoin="round"/>
</svg>
