<svg width="25" height="25" viewBox="0 0 25 25" fill="none" xmlns="http://www.w3.org/2000/svg">
<circle cx="12.75" cy="12.8574" r="10" fill="#AAABAD"/>
<mask id="path-2-inside-1_17855_36858" fill="white">
<path fill-rule="evenodd" clip-rule="evenodd" d="M16.1036 10.211C16.2988 10.0157 16.2988 9.69913 16.1036 9.50387C15.9083 9.30861 15.5917 9.30861 15.3964 9.50387L12.75 12.1503L10.1036 9.50387C9.90829 9.30861 9.59171 9.30861 9.39645 9.50387C9.20118 9.69913 9.20118 10.0157 9.39645 10.211L12.0429 12.8574L9.39645 15.5039C9.20118 15.6991 9.20118 16.0157 9.39645 16.211C9.59171 16.4062 9.90829 16.4062 10.1036 16.211L12.75 13.5645L15.3964 16.211C15.5917 16.4062 15.9083 16.4062 16.1036 16.211C16.2988 16.0157 16.2988 15.6991 16.1036 15.5039L13.4571 12.8574L16.1036 10.211Z"/>
</mask>
<path d="M16.1036 9.50387L15.3964 10.211L15.3964 10.211L16.1036 9.50387ZM16.1036 10.211L15.3964 9.50387L15.3964 9.50387L16.1036 10.211ZM15.3964 9.50387L16.1036 10.211L16.1036 10.211L15.3964 9.50387ZM12.75 12.1503L12.0429 12.8574L12.75 13.5645L13.4571 12.8574L12.75 12.1503ZM10.1036 9.50387L10.8107 8.79676L10.8107 8.79676L10.1036 9.50387ZM9.39645 9.50387L10.1036 10.211L10.1036 10.211L9.39645 9.50387ZM9.39645 10.211L8.68934 10.9181L8.68934 10.9181L9.39645 10.211ZM12.0429 12.8574L12.75 13.5645L13.4571 12.8574L12.75 12.1503L12.0429 12.8574ZM9.39645 15.5039L10.1036 16.211L10.1036 16.211L9.39645 15.5039ZM9.39645 16.211L10.1036 15.5039L10.1036 15.5039L9.39645 16.211ZM10.1036 16.211L9.39645 15.5039L9.39645 15.5039L10.1036 16.211ZM12.75 13.5645L13.4571 12.8574L12.75 12.1503L12.0429 12.8574L12.75 13.5645ZM15.3964 16.211L16.1036 15.5039L16.1036 15.5039L15.3964 16.211ZM16.1036 16.211L15.3964 15.5039L15.3964 15.5039L16.1036 16.211ZM16.1036 15.5039L15.3964 16.211L15.3964 16.211L16.1036 15.5039ZM13.4571 12.8574L12.75 12.1503L12.0429 12.8574L12.75 13.5645L13.4571 12.8574ZM15.3964 10.211C15.2012 10.0157 15.2012 9.69913 15.3964 9.50387L16.8107 10.9181C17.3964 10.3323 17.3964 9.38255 16.8107 8.79676L15.3964 10.211ZM16.1036 10.211C15.9083 10.4062 15.5917 10.4062 15.3964 10.211L16.8107 8.79676C16.2249 8.21098 15.2751 8.21098 14.6893 8.79676L16.1036 10.211ZM13.4571 12.8574L16.1036 10.211L14.6893 8.79676L12.0429 11.4432L13.4571 12.8574ZM9.39645 10.211L12.0429 12.8574L13.4571 11.4432L10.8107 8.79676L9.39645 10.211ZM10.1036 10.211C9.90829 10.4062 9.59171 10.4062 9.39645 10.211L10.8107 8.79676C10.2249 8.21098 9.27513 8.21098 8.68934 8.79676L10.1036 10.211ZM10.1036 9.50387C10.2988 9.69913 10.2988 10.0157 10.1036 10.211L8.68934 8.79676C8.10355 9.38255 8.10355 10.3323 8.68934 10.9181L10.1036 9.50387ZM12.75 12.1503L10.1036 9.50387L8.68934 10.9181L11.3358 13.5645L12.75 12.1503ZM10.1036 16.211L12.75 13.5645L11.3358 12.1503L8.68934 14.7968L10.1036 16.211ZM10.1036 15.5039C10.2988 15.6991 10.2988 16.0157 10.1036 16.211L8.68934 14.7968C8.10355 15.3825 8.10355 16.3323 8.68934 16.9181L10.1036 15.5039ZM9.39645 15.5039C9.59171 15.3086 9.90829 15.3086 10.1036 15.5039L8.68934 16.9181C9.27513 17.5039 10.2249 17.5039 10.8107 16.9181L9.39645 15.5039ZM12.0429 12.8574L9.39645 15.5039L10.8107 16.9181L13.4571 14.2716L12.0429 12.8574ZM16.1036 15.5039L13.4571 12.8574L12.0429 14.2716L14.6893 16.9181L16.1036 15.5039ZM15.3964 15.5039C15.5917 15.3086 15.9083 15.3086 16.1036 15.5039L14.6893 16.9181C15.2751 17.5039 16.2249 17.5039 16.8107 16.9181L15.3964 15.5039ZM15.3964 16.211C15.2012 16.0157 15.2012 15.6991 15.3964 15.5039L16.8107 16.9181C17.3964 16.3323 17.3964 15.3825 16.8107 14.7968L15.3964 16.211ZM12.75 13.5645L15.3964 16.211L16.8107 14.7968L14.1642 12.1503L12.75 13.5645ZM15.3964 9.50387L12.75 12.1503L14.1642 13.5645L16.8107 10.9181L15.3964 9.50387Z" fill="white" mask="url(#path-2-inside-1_17855_36858)"/>
</svg>
