<svg width="24" height="25" viewBox="0 0 24 25" fill="none" xmlns="http://www.w3.org/2000/svg">
<path d="M10.7429 5.97708C11.1494 5.917 11.5686 5.88477 12.0004 5.88477C17.1054 5.88477 20.4553 10.3896 21.5807 12.1716C21.7169 12.3873 21.785 12.4951 21.8231 12.6614C21.8518 12.7864 21.8517 12.9834 21.8231 13.1083C21.7849 13.2747 21.7164 13.3832 21.5792 13.6003C21.2793 14.0749 20.8222 14.7419 20.2165 15.4652M6.72432 7.5998C4.56225 9.06647 3.09445 11.1041 2.42111 12.17C2.28428 12.3866 2.21587 12.4949 2.17774 12.6612C2.1491 12.7862 2.14909 12.9832 2.17771 13.1081C2.21583 13.2744 2.28393 13.3823 2.42013 13.5979C3.54554 15.3799 6.89541 19.8848 12.0004 19.8848C14.0588 19.8848 15.8319 19.1524 17.2888 18.1614M3.00042 3.88477L21.0004 21.8848M9.8791 10.7634C9.3362 11.3063 9.00042 12.0563 9.00042 12.8848C9.00042 14.5416 10.3436 15.8848 12.0004 15.8848C12.8288 15.8848 13.5788 15.549 14.1217 15.0061" stroke="#A4A8B1" stroke-width="1.5" stroke-linecap="round" stroke-linejoin="round"/>
</svg>
