<svg width="48" height="48" viewBox="0 0 48 48" fill="none" xmlns="http://www.w3.org/2000/svg">
<g clip-path="url(#clip0_17670_15063)">
<path fill-rule="evenodd" clip-rule="evenodd" d="M3.32907 2.6C2.3737 2.6 1.6 3.37392 1.6 4.32762V43.9057C1.6 44.8594 2.3737 45.6333 3.32907 45.6333H25.2709C26.2263 45.6333 27 44.8594 27 43.9057V31.2925C27 30.8507 27.3582 30.4925 27.8 30.4925C28.2418 30.4925 28.6 30.8507 28.6 31.2925V43.9057C28.6 45.7439 27.1091 47.2333 25.2709 47.2333H3.32907C1.49091 47.2333 0 45.7439 0 43.9057V4.32762C0 2.4894 1.49091 1 3.32907 1H25.2709C27.1091 1 28.6 2.4894 28.6 4.32762V19.7379C28.6 20.1797 28.2418 20.5379 27.8 20.5379C27.3582 20.5379 27 20.1797 27 19.7379V4.32762C27 3.37391 26.2263 2.6 25.2709 2.6H3.32907Z" fill="#474C53"/>
<rect x="8" y="4.8999" width="12.4" height="1.65333" rx="0.826667" fill="#4B0091"/>
<path opacity="0.9" d="M5 10C5 9.44772 5.44772 9 6 9H23C23.5523 9 24 9.44772 24 10V39C24 39.5523 23.5523 40 23 40H6C5.44771 40 5 39.5523 5 39V10Z" fill="#ECECED"/>
<path fill-rule="evenodd" clip-rule="evenodd" d="M20.707 21.225C21.0846 20.8785 21.7111 20.8917 22.1063 21.2545L25.87 24.7093C26.4629 25.2535 27.4026 25.2733 27.969 24.7534L34.5851 18.6803C34.9626 18.3338 35.5891 18.347 35.9844 18.7098C36.3796 19.0726 36.394 19.6477 36.0165 19.9942L29.4003 26.0673C28.0789 27.2803 25.8862 27.2341 24.5028 25.9643L20.7391 22.5095C20.3439 22.1467 20.3295 21.5716 20.707 21.225Z" fill="#4B0091"/>
<path fill-rule="evenodd" clip-rule="evenodd" d="M19.5283 20.1431C20.6072 19.1527 22.2903 19.2594 23.285 20.1725L26.9435 23.5307L33.4064 17.5984C34.4853 16.608 36.1684 16.7147 37.1631 17.6278C38.1578 18.5409 38.274 20.0858 37.1952 21.0762L30.579 27.1493C28.5563 29.006 25.307 28.8663 23.3241 27.0462L19.5604 23.5914C18.5657 22.6784 18.4494 21.1334 19.5283 20.1431ZM22.1063 21.2545C21.7111 20.8917 21.0846 20.8785 20.707 21.225C20.3295 21.5716 20.3439 22.1467 20.7391 22.5095L24.5028 25.9643C25.8862 27.2341 28.0789 27.2803 29.4003 26.0673L36.0165 19.9942C36.394 19.6477 36.3796 19.0726 35.9844 18.7098C35.5891 18.347 34.9626 18.3338 34.5851 18.6803L27.969 24.7534C27.4026 25.2733 26.4629 25.2535 25.87 24.7093L22.1063 21.2545Z" fill="white"/>
</g>
<defs>
<clipPath id="clip0_17670_15063">
<rect width="48" height="48" fill="white"/>
</clipPath>
</defs>
</svg>
